<?xml version="1.0" standalone="no"?>
<!DOCTYPE svg PUBLIC "-//W3C//DTD SVG 20010904//EN"
 "http://www.w3.org/TR/2001/REC-SVG-20010904/DTD/svg10.dtd">
<svg version="1.0" xmlns="http://www.w3.org/2000/svg"
 width="626.000000pt" height="626.000000pt" viewBox="0 0 626.000000 626.000000"
 preserveAspectRatio="xMidYMid meet">

<g transform="translate(0.000000,626.000000) scale(0.100000,-0.100000)"
fill="#000" stroke="none">
<path d="M5257 5900 c-49 -16 -117 -33 -153 -36 -44 -5 -64 -11 -64 -20 0 -8
-6 -14 -14 -14 -8 0 -60 -19 -117 -42 -68 -27 -121 -41 -152 -42 l-48 -1 26
-21 26 -20 -241 -125 c-142 -73 -254 -137 -273 -157 -39 -39 -81 -52 -167 -52
-81 0 -139 26 -232 102 -93 77 -122 94 -208 117 -97 27 -101 27 -57 -10 20
-17 37 -35 37 -40 0 -5 -49 -9 -109 -9 -134 0 -219 -11 -426 -56 -222 -49
-358 -66 -429 -54 -31 5 -62 12 -69 16 -22 14 14 -29 61 -71 l44 -40 -77 -44
c-145 -83 -294 -118 -401 -93 -40 9 -41 8 -59 -24 -29 -55 -66 -81 -161 -118
-140 -53 -361 -122 -438 -136 -65 -12 -179 -9 -235 7 -33 9 -21 -9 41 -57 27
-22 46 -40 40 -40 -35 0 -215 80 -276 123 l-28 20 7 -24 c11 -38 73 -168 95
-199 11 -15 20 -30 20 -32 0 -5 -330 29 -408 42 -93 16 -169 47 -208 86 l-34
35 0 -40 c0 -132 39 -363 86 -510 61 -188 192 -394 309 -482 l56 -42 -55 -22
c-54 -22 -146 -72 -146 -80 0 -2 17 -4 38 -3 49 0 59 -5 156 -86 81 -67 122
-84 171 -72 24 6 25 5 14 -16 -18 -33 -94 -112 -138 -142 -21 -15 -74 -43
-117 -62 l-79 -34 55 6 c165 18 289 53 424 121 68 34 87 40 82 27 -21 -54 -26
-203 -20 -609 5 -322 4 -472 -5 -560 -27 -252 -92 -424 -206 -540 -35 -36 -62
-65 -59 -65 2 0 41 19 87 41 256 129 494 357 607 579 42 84 103 247 97 263 -1
5 -15 -8 -29 -29 -53 -79 -147 -165 -239 -218 -25 -14 -48 -26 -51 -26 -3 0
-8 66 -11 148 -4 81 -14 219 -23 307 -18 182 -15 229 20 317 14 34 23 64 21
66 -2 2 -18 -6 -35 -18 -17 -12 -33 -20 -36 -17 -9 9 -17 321 -10 382 7 59 9
62 84 133 l77 73 -80 -56 c-100 -71 -196 -128 -294 -173 -72 -33 -205 -82
-223 -82 -5 0 15 24 44 53 30 29 70 83 91 123 43 84 46 96 13 65 -13 -12 -39
-26 -59 -32 -48 -13 -84 3 -174 79 -39 33 -81 63 -92 67 -12 3 -21 10 -21 15
0 15 114 52 149 48 l33 -4 -53 45 c-85 72 -116 107 -143 165 -30 64 -73 191
-81 243 -6 38 -6 38 25 -18 121 -216 242 -297 460 -305 l105 -4 -75 20 c-41
11 -90 31 -110 44 -34 23 -113 97 -107 102 1 1 27 -2 57 -7 40 -6 99 -3 220
11 91 11 233 24 315 30 83 5 157 10 165 11 8 0 -11 7 -42 14 -72 18 -135 47
-179 84 l-34 29 55 -10 c56 -10 235 -6 247 6 13 13 -24 63 -107 147 -72 73
-100 93 -180 132 -101 49 -259 93 -370 103 l-65 6 50 -26 50 -26 -40 4 c-22 3
-116 10 -210 16 -184 11 -270 28 -317 62 -28 20 -30 20 -25 2 27 -94 46 -179
52 -229 9 -81 39 -226 64 -305 11 -35 19 -65 18 -67 -8 -7 -80 145 -111 234
-38 110 -80 297 -91 405 l-7 67 40 -20 c46 -23 122 -32 447 -54 127 -9 264
-23 305 -30 149 -29 327 -100 442 -175 59 -39 50 -24 -17 28 l-30 23 48 -5
c56 -7 96 -26 155 -74 23 -19 42 -32 42 -29 0 9 -90 118 -115 140 -20 18 -19
18 32 13 72 -7 98 -23 181 -111 65 -68 71 -72 53 -36 -34 66 -58 133 -65 184
l-7 49 33 -3 c65 -4 78 2 163 81 100 93 144 124 240 173 102 51 166 67 268 67
77 0 88 -2 77 -15 -6 -8 -35 -24 -63 -37 -166 -72 -310 -152 -361 -199 -59
-54 -129 -146 -166 -219 l-23 -45 39 36 c42 37 152 104 160 97 2 -3 -10 -22
-27 -44 -17 -21 -40 -56 -50 -76 -31 -61 -77 -106 -196 -194 -82 -61 -122 -98
-151 -141 -22 -32 -58 -71 -80 -86 -45 -32 -131 -67 -165 -67 -21 -1 -21 -1
-3 -12 29 -16 160 -3 248 25 l78 25 -20 -27 c-10 -15 -27 -34 -36 -42 -40 -33
-139 -169 -166 -228 -39 -85 -134 -473 -109 -444 5 4 31 42 59 83 67 98 191
240 274 313 36 31 68 57 72 57 3 0 -14 -27 -38 -59 -105 -143 -191 -321 -222
-460 -32 -144 4 -378 103 -669 l28 -83 1 158 c0 143 3 167 28 247 59 193 140
329 289 481 l98 100 -36 -65 c-49 -87 -88 -174 -120 -262 -27 -74 -59 -207
-46 -191 4 4 24 33 44 64 41 62 174 197 249 254 105 79 371 225 385 211 3 -2
-17 -28 -44 -58 -67 -73 -133 -168 -183 -260 -23 -43 -40 -78 -38 -78 3 0 28
29 56 64 105 131 211 192 518 296 415 142 509 212 745 560 72 107 160 231 194
275 67 85 175 193 214 215 22 11 23 11 17 -6 -19 -52 -95 -170 -128 -200 -21
-19 -34 -34 -29 -34 12 0 62 40 88 71 46 54 141 73 278 55 l60 -8 -49 -25
c-27 -14 -74 -27 -105 -31 -51 -5 -53 -6 -24 -13 50 -10 109 5 214 55 199 94
366 132 544 123 61 -3 134 -13 162 -22 45 -13 56 -22 80 -63 35 -59 35 -102
-1 -237 -31 -117 -121 -309 -167 -355 -18 -17 -93 -61 -168 -98 -373 -180
-555 -329 -635 -519 -37 -88 -32 -90 14 -6 22 40 65 98 94 130 l54 58 -9 -45
c-12 -66 -11 -119 5 -180 8 -30 13 -57 11 -59 -2 -2 -18 19 -36 45 l-31 49 6
-53 c8 -65 39 -151 68 -187 l21 -27 -24 7 c-27 8 -72 37 -106 68 -29 26 -29
17 1 -69 35 -102 74 -192 113 -258 l35 -60 -18 -60 c-9 -34 -24 -106 -34 -160
l-16 -99 -36 44 c-20 24 -57 82 -83 129 l-46 85 6 -70 c8 -90 45 -229 89 -340
20 -49 34 -90 32 -92 -2 -2 -23 1 -47 6 -50 12 -230 13 -304 2 -47 -7 -48 -8
-20 -15 95 -24 195 -63 195 -76 0 -4 -21 -10 -47 -12 -27 -3 -60 -10 -75 -16
-26 -11 -27 -12 -14 -44 7 -18 16 -47 19 -65 l6 -32 -47 36 c-26 20 -70 46
-98 59 -56 25 -155 56 -161 50 -2 -2 5 -23 16 -48 22 -51 55 -192 49 -209 -2
-6 -17 8 -33 31 -42 60 -169 176 -274 249 -50 34 -91 59 -91 56 0 -4 18 -28
41 -53 49 -56 105 -150 148 -249 17 -39 31 -74 31 -77 0 -3 -21 10 -46 29 -43
33 -160 105 -170 105 -3 0 2 -10 10 -22 9 -12 16 -32 16 -45 0 -24 -51 -103
-157 -241 -60 -78 -66 -83 -59 -52 39 193 33 345 -29 705 -40 230 -46 290 -47
405 0 139 20 248 66 355 15 35 15 38 1 20 -60 -75 -139 -238 -166 -345 -24
-95 -17 -261 21 -480 28 -165 34 -219 33 -350 0 -140 -2 -164 -27 -245 -15
-49 -31 -94 -36 -99 -5 -5 -21 11 -37 39 -38 65 -177 274 -203 305 -25 29 -27
38 24 -135 88 -301 110 -440 105 -683 -2 -94 -3 -172 -2 -172 1 0 24 37 51 83
70 115 123 225 167 342 39 105 77 166 225 366 50 68 94 136 97 152 3 15 8 27
12 27 14 0 140 -102 184 -149 26 -27 47 -46 47 -41 0 22 -67 194 -107 274
l-45 89 40 -31 c96 -76 204 -209 247 -305 13 -29 24 -44 24 -35 2 43 -32 247
-53 318 l-23 78 49 -19 c92 -36 166 -92 215 -163 l35 -51 -7 80 c-3 44 -11
100 -16 124 -5 24 -7 46 -4 50 4 3 49 6 100 6 l94 0 -27 22 c-15 12 -55 36
-89 53 -35 17 -63 34 -63 37 0 3 42 3 93 -1 95 -6 174 -25 213 -51 20 -13 18
-4 -20 83 -43 96 -97 254 -111 322 -6 32 -3 29 32 -27 21 -35 56 -84 78 -110
l40 -48 7 90 c3 50 20 140 36 202 l29 112 -40 68 c-41 71 -111 232 -104 239 2
2 24 -4 48 -15 24 -11 62 -23 84 -27 l40 -7 -42 46 c-40 44 -73 98 -88 145 -6
20 2 17 49 -22 31 -25 59 -46 61 -46 3 0 -10 24 -29 53 -19 28 -40 74 -47 100
-16 66 -7 205 17 254 27 54 148 132 406 261 l213 107 42 64 c81 123 164 364
167 482 1 46 -4 64 -29 105 -35 56 -62 72 -151 87 -69 12 -75 21 -53 71 l11
24 34 -20 33 -19 -9 32 c-14 48 9 134 78 290 72 165 78 187 97 391 9 90 20
180 24 200 6 23 5 38 -1 40 -5 2 -1 19 10 38 26 45 62 173 62 223 0 31 -8 47
-47 89 -70 75 -127 98 -238 98 -73 -1 -107 -6 -178 -30z m325 -13 c26 -15 65
-48 88 -74 39 -45 41 -50 35 -93 -4 -25 -18 -80 -31 -122 -19 -58 -28 -76 -39
-72 -8 4 -15 10 -15 16 0 5 4 7 9 4 13 -8 30 48 41 133 9 70 9 76 -12 98 l-22
23 -28 -27 c-15 -14 -29 -25 -31 -22 -1 2 -14 28 -27 57 -13 29 -29 57 -36 63
-18 15 -191 11 -254 -6 -64 -17 -78 -12 -26 10 78 33 142 45 222 42 66 -3 89
-8 126 -30z m-472 -85 c0 -5 -11 -14 -24 -20 -24 -11 -23 -12 50 -88 43 -46
70 -81 63 -84 -6 -4 3 -12 19 -19 16 -7 44 -28 63 -47 l33 -34 -67 0 c-42 0
-86 -7 -117 -19 -47 -18 -340 -179 -340 -187 0 -8 109 40 170 74 99 56 190 95
237 100 63 7 130 -6 161 -32 15 -13 46 -29 69 -36 38 -12 42 -16 37 -39 l-5
-26 14 24 c11 18 23 23 60 25 36 1 44 -1 35 -11 -6 -7 -18 -13 -27 -13 -12 0
-27 -25 -50 -81 -19 -45 -42 -90 -52 -100 -24 -24 -72 -24 -146 -3 -76 22
-136 14 -225 -28 -107 -52 -127 -74 -30 -33 46 19 101 38 123 41 44 7 129 -3
129 -16 0 -7 -311 -251 -329 -258 -4 -1 -36 15 -71 37 -36 21 -67 37 -69 35
-2 -2 12 -28 32 -59 l37 -55 -36 -15 c-62 -26 -177 -19 -372 22 -238 49 -368
52 -457 10 -33 -16 -70 -38 -82 -49 -13 -12 -23 -18 -23 -14 0 19 46 93 83
133 l42 45 -40 -16 c-54 -23 -119 -61 -135 -80 -7 -9 -17 -16 -22 -16 -10 0
34 82 61 114 43 50 227 146 339 177 l67 19 -75 -5 c-212 -16 -312 -48 -450
-144 -111 -77 -146 -84 -401 -85 l-216 -1 15 23 c14 22 18 22 206 22 229 0
264 7 375 79 45 29 110 63 144 77 l62 25 -100 -5 c-110 -6 -109 -9 -5 37 22
10 18 12 -40 18 -49 4 -59 8 -42 14 43 14 21 22 -80 30 -59 4 -115 13 -132 22
-26 13 -40 14 -94 4 -58 -11 -71 -10 -129 10 -82 27 -106 22 -236 -45 -56 -30
-118 -57 -137 -61 -19 -4 -53 -23 -75 -42 -77 -66 -199 -112 -340 -130 l-60
-7 58 -10 c31 -5 57 -12 57 -16 0 -4 -19 -13 -42 -20 -61 -18 -123 -51 -214
-113 -147 -100 -198 -117 -278 -93 l-48 15 6 -40 c7 -44 6 -45 -32 -25 -15 7
-58 19 -97 26 -93 17 -129 32 -166 72 l-30 33 26 -69 c14 -38 39 -91 55 -118
16 -26 26 -48 22 -48 -13 0 -76 42 -125 82 l-48 40 21 -52 c12 -29 26 -62 31
-72 6 -11 9 -21 7 -24 -2 -2 -39 10 -81 26 -42 17 -116 40 -164 51 -49 11 -96
28 -105 36 -35 31 -21 40 72 47 50 4 99 10 111 14 18 7 16 10 -17 25 -50 24
-39 29 29 13 31 -7 57 -12 57 -11 0 2 -17 13 -38 25 l-37 22 145 42 c228 66
442 147 481 182 14 13 21 10 69 -28 l52 -42 -7 45 c-3 24 -9 52 -11 62 -5 14
2 17 38 17 99 0 269 67 396 156 65 45 78 48 127 29 16 -7 15 -3 -7 21 l-28 30
83 12 c46 7 126 23 178 37 317 85 546 98 663 38 31 -16 31 -19 9 35 -11 26 18
9 81 -48 l66 -60 -42 -7 c-40 -7 -35 -8 57 -19 55 -7 140 -16 188 -20 70 -6
87 -10 82 -21 -3 -10 5 -7 22 6 52 40 142 101 149 101 3 0 3 -12 -1 -27 -6
-25 -2 -23 47 23 77 72 110 95 238 164 63 34 139 75 168 91 29 16 63 29 75 30
12 0 16 3 10 6 -7 2 -13 9 -13 14 0 14 162 89 191 90 13 0 33 4 44 9 26 11 25
11 25 2z m279 -21 c25 -34 26 -41 7 -41 -8 0 -23 16 -35 35 -26 45 -3 50 28 6z
m225 -496 c-19 -215 -34 -273 -109 -444 -50 -114 -68 -168 -73 -214 -5 -60 -5
-60 -23 -39 -17 22 -17 22 -46 -37 -24 -51 -32 -60 -54 -60 l-27 -1 33 63 c18
34 49 107 68 163 19 55 59 148 87 205 70 139 76 158 105 331 21 129 40 198 49
186 2 -1 -3 -70 -10 -153z m-2020 -134 c25 -26 26 -29 9 -36 -10 -4 -63 -10
-117 -13 l-99 -5 19 26 c26 34 71 56 120 56 32 1 46 -5 68 -28z m235 -268
c-21 -43 -39 -81 -39 -86 0 -5 19 10 42 33 44 44 127 105 133 98 2 -2 -9 -24
-25 -48 -26 -38 -70 -138 -70 -156 0 -4 20 17 45 44 80 89 203 129 341 112 38
-5 137 -23 219 -40 83 -18 183 -34 223 -37 l74 -6 -54 -30 c-29 -17 -83 -61
-120 -99 -87 -89 -140 -115 -312 -149 -156 -31 -170 -33 -162 -20 3 5 -15 1
-42 -9 -26 -10 -92 -25 -147 -35 -120 -20 -177 -36 -234 -65 l-43 -21 5 28 c3
15 9 46 12 68 4 21 13 52 21 67 18 34 12 35 -29 6 l-32 -23 19 30 c10 17 28
41 40 54 18 21 10 18 -56 -16 -81 -42 -83 -41 -35 20 34 44 32 59 -3 22 -31
-33 -47 -32 -25 1 15 23 8 20 -46 -18 -129 -91 -265 -138 -419 -145 l-105 -5
25 26 24 27 -38 -16 c-26 -11 -86 -18 -204 -22 -109 -4 -191 -12 -235 -24
l-69 -17 7 36 c10 57 43 124 78 161 28 29 29 33 10 26 -33 -9 -28 9 10 39 29
23 30 25 7 19 -14 -3 -55 -18 -92 -33 -82 -33 -80 -18 5 46 53 39 250 144 272
144 4 0 -9 -21 -28 -47 -32 -45 -67 -105 -67 -117 0 -3 20 8 44 25 85 60 181
69 455 43 220 -21 310 -15 403 28 39 17 112 60 162 95 50 35 92 63 93 63 1 0
-16 -35 -38 -77z m1272 -356 c24 -45 20 -54 -25 -59 -39 -4 -38 -6 -52 117
l-6 60 32 -40 c17 -22 41 -57 51 -78z m-590 14 c-6 -10 -30 -29 -53 -41 -109
-57 -216 -180 -428 -495 -171 -255 -242 -329 -373 -390 -51 -23 -132 -54 -182
-68 -104 -30 -251 -60 -266 -55 -6 2 8 27 30 56 51 64 43 71 -71 54 -161 -23
-371 -111 -527 -219 -35 -24 -67 -43 -71 -41 -12 4 33 168 55 203 13 20 15 26
5 19 -8 -6 -80 -54 -160 -107 -183 -121 -301 -215 -340 -268 -32 -45 -35 -42
-31 36 6 134 101 378 217 557 l44 68 -128 -64 c-70 -35 -144 -75 -164 -89 -20
-14 -39 -23 -41 -20 -7 6 15 67 41 119 27 52 177 272 210 307 30 32 25 34 -20
7 -36 -21 -136 -46 -145 -36 -8 8 182 196 198 196 11 0 8 -25 -7 -65 -4 -9 15
5 42 32 61 60 130 97 231 125 69 19 107 22 323 23 149 1 265 6 295 14 87 20
178 53 240 85 33 17 63 32 67 34 4 2 -27 -52 -70 -120 -137 -215 -137 -214
-36 -116 90 88 214 191 221 185 2 -2 -6 -26 -17 -53 -12 -27 -30 -85 -41 -129
-19 -81 -37 -235 -26 -235 3 0 13 23 22 50 23 70 98 148 185 194 91 48 147 67
370 126 192 50 344 101 376 125 26 20 37 18 25 -4z"/>
<path d="M5175 5356 c-22 -7 -105 -45 -185 -84 -151 -72 -247 -108 -328 -122
l-47 -8 56 -1 c73 -1 164 30 354 122 148 71 151 72 230 72 64 0 89 -5 125 -24
25 -13 46 -25 48 -26 2 -2 -4 -20 -13 -41 -14 -35 -14 -37 0 -24 8 9 19 30 24
48 9 31 9 32 -52 62 -74 36 -155 46 -212 26z"/>
<path d="M5085 4400 c-38 -10 -156 -55 -262 -99 -202 -84 -247 -99 -328 -110
l-50 -7 68 -23 c92 -31 130 -29 303 18 340 92 454 110 488 76 52 -52 17 -181
-69 -258 -33 -30 6 -7 70 42 84 63 160 137 202 194 34 46 35 51 25 86 -7 20
-22 47 -34 58 -47 44 -285 57 -413 23z"/>
<path d="M4725 3838 c-41 -62 -182 -198 -280 -268 -134 -97 -354 -202 -797
-379 -119 -48 -148 -57 -148 -46 0 2 9 28 21 57 l20 53 -49 -56 c-68 -76 -160
-136 -405 -268 -265 -142 -340 -193 -454 -307 l-93 -93 0 153 c0 133 14 269
35 342 3 11 -17 -27 -45 -84 -92 -188 -131 -378 -133 -647 -1 -175 11 -355 22
-355 4 0 13 25 20 55 16 72 96 231 162 325 65 92 199 232 299 313 180 145 380
257 775 432 713 317 935 476 1060 758 14 32 23 57 21 57 -2 0 -16 -19 -31 -42z"/>
<path d="M4501 3328 c-2 -35 -105 -169 -216 -280 -65 -65 -121 -118 -126 -118
-4 0 -9 17 -11 38 l-4 37 -12 -30 c-35 -84 -71 -140 -157 -243 -108 -131 -137
-189 -143 -284 -2 -38 -6 -68 -9 -68 -15 0 -98 68 -143 117 -49 53 -53 55 -46
28 33 -144 189 -311 375 -405 l45 -22 -15 23 c-9 13 -23 35 -32 49 -48 76 -60
217 -27 322 26 83 73 154 205 308 127 149 202 247 249 327 39 66 79 177 73
202 -4 14 -5 14 -6 -1z"/>
<path d="M1911 2062 c-1 -118 18 -252 41 -295 5 -10 7 -21 5 -24 -7 -7 -55 78
-83 145 -34 84 -31 27 5 -75 62 -179 151 -277 491 -541 324 -252 426 -342 542
-481 96 -116 162 -245 184 -357 31 -162 29 -160 47 -24 45 338 44 641 -3 860
-5 25 -24 115 -41 200 -17 85 -32 156 -34 158 -2 2 -4 -54 -4 -125 -1 -173
-42 -430 -72 -449 -4 -2 -33 18 -64 46 -60 54 -311 245 -364 276 -30 17 -61
82 -61 125 0 20 -2 21 -120 45 -83 17 -86 19 -156 86 -125 121 -227 281 -274
433 -12 39 -25 81 -30 95 -6 16 -9 -18 -9 -98z"/>
</g>
</svg>
